<svg xmlns="http://www.w3.org/2000/svg" width="33.888" height="45" viewBox="0 0 33.888 45">
  <g id="Group_972" data-name="Group 972" transform="translate(-3.934 -1.02)">
    <path id="Path_1156" data-name="Path 1156" d="M15.648,26.9a6.049,6.049,0,0,0,2.089,0,9.024,9.024,0,0,0,8-8.921c0-4.6-7.312-15.355-8.148-16.546a1.087,1.087,0,0,0-1.525-.188,1.068,1.068,0,0,0-.188.188C15.042,2.629,7.73,13.388,7.73,17.984A9.026,9.026,0,0,0,15.648,26.9Zm-1.922-4.93a18.982,18.982,0,0,1,2.925-6.1,18.982,18.982,0,0,1,2.925,6.1,2.925,2.925,0,1,1-5.85,0ZM16.651,3.9c2.507,3.8,6.915,11.114,6.915,14.081a6.835,6.835,0,0,1-2.089,4.826,3.726,3.726,0,0,0,0-.836c0-2.423-3.468-7.563-4.178-8.586a1.087,1.087,0,0,0-1.525-.188,1.068,1.068,0,0,0-.188.188c-.689,1.024-4.178,6.267-4.178,8.586a3.726,3.726,0,0,0,0,.836,6.835,6.835,0,0,1-2.089-4.826C9.736,15.017,14.144,7.705,16.651,3.9Z" transform="translate(4.135 0)" fill="#d3e3ce"/>
    <path id="Path_1157" data-name="Path 1157" d="M35.158,24.756,31.231,23l3.907-1.546a4.052,4.052,0,0,0,2.361-5.16,4.172,4.172,0,0,0-2.089-2.214,4.011,4.011,0,0,0-3.071,0L20.785,18.572,9.608,13.7a4.183,4.183,0,0,0-3.092,0A3.987,3.987,0,0,0,4.3,15.794,4.033,4.033,0,0,0,6.391,21.1h0l3.948,1.692L6.433,24.338a4.032,4.032,0,0,0,0,7.458,3.814,3.814,0,0,0,1.588.334A4.194,4.194,0,0,0,9.5,31.838l19.22-7.646,5.787,2.486a1.943,1.943,0,0,1,0,3.593,1.834,1.834,0,0,1-1.483,0l-7.458-3.217a1.045,1.045,0,0,0-.815,1.922l7.437,3.217a3.812,3.812,0,0,0,1.609.334,4.194,4.194,0,0,0,1.483-.292A3.987,3.987,0,0,0,37.5,30.146a4.054,4.054,0,0,0-2.148-5.315C35.288,24.8,35.223,24.779,35.158,24.756ZM7.227,19.2a1.946,1.946,0,1,1,1.546-3.572h0l9.338,4.032-5.1,2.089ZM8.585,29.9a1.955,1.955,0,0,1-1.5,0A2.086,2.086,0,0,1,6.036,28.83,1.964,1.964,0,0,1,7.122,26.3L32.986,16a2.3,2.3,0,0,1,.731-.146,2,2,0,0,1,1.818,1.233,2.089,2.089,0,0,1-1.086,2.528L28.181,22.1h0Z" transform="translate(0 13.492)" fill="#d3e3ce"/>
  </g>
</svg>
