<svg xmlns="http://www.w3.org/2000/svg" width="52.545" height="42.953" viewBox="0 0 52.545 42.953">
  <g id="Group_968" data-name="Group 968" transform="translate(-0.98 -3)">
    <path id="Path_1154" data-name="Path 1154" d="M52.332,38.719h-16.2l-6.825-6.8a1.168,1.168,0,0,0-1.074-.358l-2.935.6L20.284,17.433l15.439-5.25a1.194,1.194,0,0,0,.31-2.1c-4.367-3.174-11.645-3.77-18.8-1.623l-.406-1.169a1.194,1.194,0,0,0-1.479-.74,1.216,1.216,0,0,0-.74,1.527l.406,1.169c-7.04,2.7-12.433,7.612-13.984,12.767a1.214,1.214,0,0,0,.31,1.193,1.236,1.236,0,0,0,.835.334,1.027,1.027,0,0,0,.382,0l8.614-2.959h0L18.041,18.2l4.773,14.318L16.92,33.946,7.828,24.759a1.181,1.181,0,1,0-1.67,1.67l5.823,5.846L6.444,38.719H2.22a1.193,1.193,0,0,0,0,2.386H52.332a1.193,1.193,0,1,0,0-2.386ZM16.848,11.086c2.386-.811,5.512.955,7.541,2.386l-11.931,4.1C13.078,15.19,14.486,11.873,16.848,11.086Zm8.758-1.527A17.943,17.943,0,0,1,32.431,10.8l-5.369,1.837A21.129,21.129,0,0,0,22.79,9.749,22.655,22.655,0,0,1,25.606,9.558ZM11.288,13.639a22.037,22.037,0,0,0-1.623,4.916L4.3,20.392a19.644,19.644,0,0,1,7.04-6.753Zm16.7,20.4,4.653,4.773H27.539l-1.456-4.271Zm-14.318,0,2.028,2a1.173,1.173,0,0,0,1.074.286l6.944-1.384,1.289,3.77H9.594Z" transform="translate(0 4.848)" fill="#d3e3ce"/>
    <path id="Path_1155" data-name="Path 1155" d="M15.148,9.682a10.738,10.738,0,1,1,0,12.886A1.193,1.193,0,0,0,13.239,24a13.125,13.125,0,1,0,10.5-21,13,13,0,0,0-10.5,5.25,1.193,1.193,0,1,0,1.909,1.432Z" transform="translate(16.662 0)" fill="#d3e3ce"/>
  </g>
</svg>
