<svg xmlns="http://www.w3.org/2000/svg" width="27" height="27" viewBox="0 0 27 27">
  <path id="Path_1149" data-name="Path 1149" d="M26.438,34.031a.846.846,0,0,1-.844.844H22.219a.844.844,0,0,1,0-1.687h3.375A.846.846,0,0,1,26.438,34.031Zm6.75-.844H29.813a.844.844,0,0,0,0,1.688h3.375a.844.844,0,0,0,0-1.687ZM45,23.906V41.625A3.379,3.379,0,0,1,41.625,45H21.375A3.379,3.379,0,0,1,18,41.625V23.906a3.379,3.379,0,0,1,3.375-3.375h2.531V18.844a.844.844,0,0,1,1.688,0v1.688h5.063V18.844a.844.844,0,0,1,1.688,0v1.688h5.063V18.844a.844.844,0,0,1,1.688,0v1.688h2.531A3.379,3.379,0,0,1,45,23.906Zm-1.687,0a1.687,1.687,0,0,0-1.687-1.687H39.094v1.688a.844.844,0,0,1-1.687,0V22.219H32.344v1.688a.844.844,0,0,1-1.687,0V22.219H25.594v1.688a.844.844,0,0,1-1.687,0V22.219H21.375a1.687,1.687,0,0,0-1.687,1.688V41.625a1.687,1.687,0,0,0,1.688,1.688h20.25a1.687,1.687,0,0,0,1.688-1.687Zm-17.719,13.5H22.219a.844.844,0,0,0,0,1.688h3.375a.844.844,0,0,0,0-1.687Zm7.594,0H29.813a.844.844,0,0,0,0,1.688h3.375a.844.844,0,0,0,0-1.687Zm7.594-10.125H22.219a.844.844,0,0,0,0,1.688H40.781a.844.844,0,0,0,0-1.687Zm0,5.906H37.406a.844.844,0,0,0,0,1.688h3.375a.844.844,0,0,0,0-1.687Zm0,4.219H37.406a.844.844,0,0,0,0,1.688h3.375a.844.844,0,0,0,0-1.687Z" transform="translate(-18 -18)" fill="#48484a"/>
</svg>
