<svg xmlns="http://www.w3.org/2000/svg" width="50.661" height="42" viewBox="0 0 50.661 42">
  <g id="Group_916" data-name="Group 916" transform="translate(-5.288 -11.996)">
    <path id="Path_1141" data-name="Path 1141" d="M34.269,20.031h9.589a1.029,1.029,0,0,1,.96,1.116v4.47a1.027,1.027,0,0,1-.96,1.113H34.269a1.025,1.025,0,0,1-.96-1.113v-4.47A1.027,1.027,0,0,1,34.269,20.031Zm-16.9,0h9.585a1.031,1.031,0,0,1,.964,1.116v4.47a1.029,1.029,0,0,1-.964,1.113H17.372a1.032,1.032,0,0,1-.967-1.113v-4.47A1.034,1.034,0,0,1,17.372,20.031ZM13.755,13.68h33.73a2.4,2.4,0,0,1,2.5,2.71v8.841H46.5V21.147a2.734,2.734,0,0,0-2.643-2.8H34.269a2.739,2.739,0,0,0-2.65,2.8v4.47a2.739,2.739,0,0,0,2.65,2.8h9.589a2.615,2.615,0,0,0,2.322-1.5h4L54.25,41.431V52.3H50.968l-1.152-3.46a.843.843,0,0,0-.8-.575H12.207a.839.839,0,0,0-.8.575L10.255,52.3H6.972V41.431l4.085-14.508h3.986a2.628,2.628,0,0,0,2.329,1.5h9.585a2.739,2.739,0,0,0,2.65-2.8v-4.47a2.739,2.739,0,0,0-2.65-2.8H17.372a2.74,2.74,0,0,0-2.652,2.8v4.085H11.26V16.391A2.411,2.411,0,0,1,13.755,13.68Zm0-1.684C11,12,9.577,13.976,9.577,16.391v9.572L5.315,41.083a.766.766,0,0,0-.026.232V53.139a.841.841,0,0,0,.84.843h4.733a.849.849,0,0,0,.8-.573l1.152-3.462H48.408l1.156,3.462a.836.836,0,0,0,.8.573h4.581a.848.848,0,0,0,.631-.136l.007-.007a.465.465,0,0,0,.062-.046l0,0a.347.347,0,0,0,.057-.054,0,0,0,0,0,0,0,.727.727,0,0,0,.053-.056s0-.007.006-.011a.858.858,0,0,0,.173-.65v-11.7a.875.875,0,0,0-.033-.226L51.666,25.953V16.391A4.071,4.071,0,0,0,47.485,12H13.755Z" transform="translate(0 0)"/>
    <path id="Path_1142" data-name="Path 1142" d="M14.441,56.647c-1.113,0-1.03,1.748.085,1.748H52.368a.874.874,0,1,0,0-1.748Z" transform="translate(-2.835 -16.219)"/>
  </g>
</svg>
