<svg xmlns="http://www.w3.org/2000/svg" width="42.47" height="42.3" viewBox="0 0 42.47 42.3">
  <path id="Path_1144" data-name="Path 1144" d="M44.646,26.792H4.748a1.138,1.138,0,0,0-1.136,1.136v3.841a1.138,1.138,0,0,0,1.136,1.136H5.79l1.057,10.15a4.308,4.308,0,0,0,4.295,3.871H38.252a4.307,4.307,0,0,0,4.295-3.871L43.6,32.906h1.041a1.137,1.137,0,0,0,1.136-1.136V27.928A1.137,1.137,0,0,0,44.646,26.792ZM41.191,42.915a2.947,2.947,0,0,1-2.939,2.649H11.141A2.948,2.948,0,0,1,8.2,42.915L7.161,32.906H42.234Zm3.228-11.373H4.976V28.155H44.419ZM8.025,25.657a.682.682,0,0,0,.682-.682h0v-18a.683.683,0,0,1,.682-.682H20.47a.683.683,0,0,1,.682.682v3.572H19.788V8.336a.682.682,0,0,0-.682-.682H10.752a.682.682,0,0,0-.682.682V24.975h0a.682.682,0,0,0,1.364,0V9.018h6.99v1.527H16.35a1.138,1.138,0,0,0-1.136,1.136v1.534a1.138,1.138,0,0,0,1.136,1.136h8.24a1.138,1.138,0,0,0,1.136-1.136V11.681a1.138,1.138,0,0,0-1.136-1.136H22.515V6.972A2.048,2.048,0,0,0,20.47,4.927H9.389A2.048,2.048,0,0,0,7.343,6.972v18A.681.681,0,0,0,8.025,25.657ZM24.363,11.908v1.079H16.577V11.908Zm-3.211,3.627a.681.681,0,0,1-.682.682h0a.682.682,0,0,1-.682-.682v-.227a.682.682,0,1,1,1.364,0Zm0,4.083a.682.682,0,0,1-.682.682h0a.682.682,0,0,1-.682-.682V18.71a.682.682,0,0,1,.682-.682h0a.682.682,0,0,1,.682.682Zm0,3.175v.227a.682.682,0,1,1-1.364,0v-.227a.682.682,0,0,1,.682-.682h0A.682.682,0,0,1,21.152,22.793ZM23.807,16.2a.7.7,0,0,1-.133.013.682.682,0,0,1-.668-.549l-.045-.223a.682.682,0,0,1,1.338-.266l.044.223a.682.682,0,0,1-.535.8Zm-.17,2.643a.682.682,0,0,1,1.338-.265l.18.909a.681.681,0,0,1-.536.8h0a.674.674,0,0,1-.134.014.683.683,0,0,1-.668-.549Zm2.15,3.822.045.223a.682.682,0,0,1-.536.8.707.707,0,0,1-.133.013.682.682,0,0,1-.668-.55l-.044-.223a.681.681,0,0,1,.536-.8h0A.68.68,0,0,1,25.786,22.665Zm-8.519-6.452a.7.7,0,0,1-.133-.013h0a.681.681,0,0,1-.535-.8l.044-.223a.682.682,0,1,1,1.337.265l-.044.223A.682.682,0,0,1,17.267,16.213ZM16.455,20.3a.674.674,0,0,1-.134-.014h0a.681.681,0,0,1-.536-.8l.18-.909a.683.683,0,0,1,.8-.536h0a.681.681,0,0,1,.535.8l-.18.909A.682.682,0,0,1,16.455,20.3Zm.036,2.63-.045.223a.682.682,0,0,1-.668.549.708.708,0,0,1-.134-.013.682.682,0,0,1-.535-.8l.044-.223a.681.681,0,0,1,.8-.536h0A.683.683,0,0,1,16.491,22.931Z" transform="translate(-3.462 -4.777)" stroke="#000" stroke-width="0.3"/>
</svg>
