<svg xmlns="http://www.w3.org/2000/svg" width="34.393" height="43.773" viewBox="0 0 34.393 43.773">
  <g id="Group_917" data-name="Group 917" transform="translate(-5.45 -4.074)">
    <path id="Path_1143" data-name="Path 1143" d="M28.405,23.958a10.582,10.582,0,1,0-11.518,0A16.036,16.036,0,0,0,5.85,39.112v8.335H39.443V39.188A16.036,16.036,0,0,0,28.405,23.958ZM14.589,15.092a8.057,8.057,0,1,1,8.057,8.057h0A8.079,8.079,0,0,1,14.589,15.092ZM36.917,44.921H8.376V39.188A13.514,13.514,0,0,1,21.863,25.7h1.566A13.514,13.514,0,0,1,36.917,39.188Z" transform="translate(0)" stroke="#fff" stroke-width="0.8"/>
  </g>
</svg>
