<svg xmlns="http://www.w3.org/2000/svg" width="17.329" height="17.329" viewBox="0 0 17.329 17.329">
  <g id="Icon_feather-instagram" data-name="Icon feather-instagram" transform="translate(0.5 0.5)">
    <path id="Path_364" data-name="Path 364" d="M7.082,3h8.165a4.082,4.082,0,0,1,4.082,4.082v8.165a4.082,4.082,0,0,1-4.082,4.082H7.082A4.082,4.082,0,0,1,3,15.247V7.082A4.082,4.082,0,0,1,7.082,3Z" transform="translate(-3 -3)" fill="none" stroke="#48484a" stroke-linecap="round" stroke-linejoin="round" stroke-width="1"/>
    <path id="Path_365" data-name="Path 365" d="M18.561,14.722A3.266,3.266,0,1,1,15.81,11.97a3.266,3.266,0,0,1,2.751,2.751Z" transform="translate(-7.131 -7.072)" fill="none" stroke="#48484a" stroke-linecap="round" stroke-linejoin="round" stroke-width="1"/>
    <path id="Path_366" data-name="Path 366" d="M26.25,9.75h0" transform="translate(-13.595 -6.076)" fill="none" stroke="#48484a" stroke-linecap="round" stroke-linejoin="round" stroke-width="1"/>
  </g>
</svg>
