<svg xmlns="http://www.w3.org/2000/svg" width="20.896" height="26.719" viewBox="0 0 20.896 26.719">
  <g id="Group_938" data-name="Group 938" transform="translate(-5.85 -4.494)">
    <path id="Path_1143" data-name="Path 1143" d="M19.88,16.6a6.583,6.583,0,1,0-7.164,0A9.975,9.975,0,0,0,5.85,26.028v5.185h20.9V26.075A9.975,9.975,0,0,0,19.88,16.6Zm-8.594-5.515A5.012,5.012,0,1,1,16.3,16.1h0A5.026,5.026,0,0,1,11.286,11.087ZM25.175,29.642H7.421V26.075a8.406,8.406,0,0,1,8.39-8.39h.974a8.406,8.406,0,0,1,8.39,8.39Z" transform="translate(0)"/>
  </g>
</svg>
