<svg xmlns="http://www.w3.org/2000/svg" width="23.309" height="16.676" viewBox="0 0 23.309 16.676">
  <g id="Icon_feather-youtube" data-name="Icon feather-youtube" transform="translate(0.5 0.5)">
    <path id="Path_369" data-name="Path 369" d="M23.341,8.454a2.819,2.819,0,0,0-1.967-2.028C19.63,6,12.654,6,12.654,6s-6.976,0-8.72.466A2.819,2.819,0,0,0,1.966,8.494,29.406,29.406,0,0,0,1.5,13.858a29.406,29.406,0,0,0,.466,5.4A2.819,2.819,0,0,0,3.933,21.21c1.744.466,8.72.466,8.72.466s6.976,0,8.72-.466a2.819,2.819,0,0,0,1.967-2.028,29.406,29.406,0,0,0,.466-5.323,29.405,29.405,0,0,0-.466-5.4Z" transform="translate(-1.499 -6)" fill="none" stroke="#48484a" stroke-linecap="round" stroke-linejoin="round" stroke-width="1"/>
    <path id="Path_370" data-name="Path 370" d="M14.625,19.351l5.83-3.316-5.83-3.316Z" transform="translate(-5.752 -8.177)" fill="#48484a"/>
  </g>
</svg>
