<svg xmlns="http://www.w3.org/2000/svg" width="42.558" height="42.457" viewBox="0 0 42.558 42.457">
  <path id="Path_1159" data-name="Path 1159" d="M38.551,22.226l4.612-4.534A.969.969,0,1,0,41.812,16.3l-5.036,4.959h-8.76a5.8,5.8,0,0,0-.984-2.373l6.174-6.309h7.043a.965.965,0,0,0,.965-.965.907.907,0,0,0-.845-.965c-.041,0-.079,0-.12,0H33.8V4.166A.965.965,0,0,0,32.84,3.2h0a.945.945,0,0,0-.965.926v7.081l-6.309,6.309a5.8,5.8,0,0,0-2.373-.984V7.678l4.959-5.036a.969.969,0,1,0-1.389-1.351h0L22.228,5.9,17.693,1.291A.969.969,0,1,0,16.3,2.642h0l4.959,5.036v8.856a5.8,5.8,0,0,0-2.373.984L12.58,11.248V4.186a.945.945,0,0,0-.945-.945h-.019a.965.965,0,0,0-.965.965v6.445H4.206a.965.965,0,1,0,0,1.93h7.043L17.52,18.85a5.8,5.8,0,0,0-.984,2.373H7.679L2.643,16.3a.969.969,0,1,0-1.351,1.389L5.9,22.226,1.292,26.761a.965.965,0,0,0,.675,1.659,1,1,0,0,0,.675-.27l5.036-4.959h8.856a5.8,5.8,0,0,0,.984,2.373l-6.271,6.309H4.206a.965.965,0,1,0,0,1.93h6.445v6.483a.965.965,0,0,0,.965.965h0a.945.945,0,0,0,.965-.926V33.244l6.271-6.271a5.8,5.8,0,0,0,2.412,1.042v8.856L16.3,41.811a.969.969,0,1,0,1.389,1.351l4.534-4.612,4.534,4.612a.978.978,0,0,0,.695.289,1,1,0,0,0,.675-.27.965.965,0,0,0,.006-1.364l-.006-.006-4.94-5.036v-8.76a5.8,5.8,0,0,0,2.373-.984l6.309,6.174v7.062a.945.945,0,0,0,.945.945h.019a.965.965,0,0,0,.965-.965V33.8h6.483a.965.965,0,1,0,0-1.93H33.245L26.974,25.6a5.8,5.8,0,0,0,1.042-2.412h8.856l5.036,4.959a1,1,0,0,0,.675.27.965.965,0,0,0,.675-1.659ZM22.228,26.085a3.859,3.859,0,1,1,3.859-3.859A3.858,3.858,0,0,1,22.228,26.085Z" transform="translate(-0.997 -0.998)" fill="#d3e3ce"/>
</svg>
