<svg xmlns="http://www.w3.org/2000/svg" width="56.2" height="35.659" viewBox="0 0 56.2 35.659">
  <path id="Path_1158" data-name="Path 1158" d="M53.635,29.334,35.921,22.815a1.3,1.3,0,0,0-1.636.767,1.278,1.278,0,0,0,.767,1.636l17.612,6.569a3.425,3.425,0,0,1,1.994,2.991,3.374,3.374,0,0,1-3.374,3.374H6.806a3.272,3.272,0,0,1-3.272-3.272h0a3.3,3.3,0,0,1,2.1-3.042l23.926-9.023a1.3,1.3,0,0,0,.818-1.2V17.7a6.39,6.39,0,1,0-7.669-6.263,1.278,1.278,0,0,0,2.556,0,3.834,3.834,0,1,1,3.96,3.7l-.125,0a1.279,1.279,0,0,0-1.278,1.278v4.243L4.812,29.462A5.8,5.8,0,0,0,6.806,40.709H51.284a5.931,5.931,0,0,0,2.352-11.375Z" transform="translate(-1.014 -5.05)" fill="#d3e3ce"/>
</svg>
